<svg xmlns="http://www.w3.org/2000/svg"><symbol id="ad-arrow-down" viewBox="0 0 20 20"><path fill-rule="evenodd" clip-rule="evenodd" d="M9.176 13.024a.6.6 0 0 0 .848 0l5-5a.6.6 0 0 0-.848-.848L9.6 11.75 5.024 7.176a.6.6 0 1 0-.848.848l5 5Z"/></symbol><symbol id="ad-arrow-left" viewBox="0 0 20 20"><path fill-rule="evenodd" clip-rule="evenodd" d="M13.024 4.176a.6.6 0 0 1 0 .848L8.45 9.6l4.575 4.576a.6.6 0 1 1-.848.848l-5-5a.6.6 0 0 1 0-.848l5-5a.6.6 0 0 1 .848 0Z"/></symbol><symbol id="ad-arrow-right" viewBox="0 0 20 20"><path fill-rule="evenodd" clip-rule="evenodd" d="M12.824 9.176a.6.6 0 0 1 0 .848l-5 5a.6.6 0 0 1-.848-.848L11.552 9.6 6.976 5.024a.6.6 0 1 1 .848-.848l5 5Z"/></symbol><symbol id="ad-arrow-up" viewBox="0 0 20 20"><path fill-rule="evenodd" clip-rule="evenodd" d="M9.576 6.576a.6.6 0 0 1 .848 0l5 5a.6.6 0 0 1-.848.848L10 7.848l-4.576 4.576a.6.6 0 0 1-.848-.848l5-5Z"/></symbol><symbol id="ad-interface-check" viewBox="0 0 20 20"><path fill-rule="evenodd" clip-rule="evenodd" d="M15.63 6.358a.9.9 0 0 1 .012 1.273l-6.875 7a.9.9 0 0 1-1.284 0l-3.125-3.182a.9.9 0 1 1 1.284-1.261l2.483 2.528 6.233-6.347a.9.9 0 0 1 1.273-.011Z"/></symbol><symbol id="ad-interface-circle-add" viewBox="0 0 20 20"><path fill-rule="evenodd" clip-rule="evenodd" d="M10 3.185A6.814 6.814 0 0 0 3.185 10 6.814 6.814 0 0 0 10 16.815 6.814 6.814 0 0 0 16.815 10 6.814 6.814 0 0 0 10 3.185ZM2 10a8 8 0 0 1 8-8 8 8 0 0 1 8 8 8 8 0 0 1-8 8 8 8 0 0 1-8-8Zm8-3.885c.327 0 .593.266.593.593v2.7h2.7a.593.593 0 1 1 0 1.184h-2.7v2.7a.593.593 0 0 1-1.186 0v-2.7h-2.7a.593.593 0 1 1 0-1.185h2.7v-2.7c0-.326.266-.592.593-.592Z"/></symbol><symbol fill="none" id="ad-interface-menu" viewBox="0 0 21 21"><path fill-rule="evenodd" clip-rule="evenodd" d="M4 7.6a.6.6 0 0 1 .6-.6h10.838a.6.6 0 0 1 0 1.2H4.6a.6.6 0 0 1-.6-.6Zm0 6.67a.6.6 0 0 1 .6-.6h10.838a.6.6 0 0 1 0 1.2H4.6a.6.6 0 0 1-.6-.6Zm0-3.335a.6.6 0 0 1 .6-.6h10.838a.6.6 0 1 1 0 1.2H4.6a.6.6 0 0 1-.6-.6Z" fill="#1A1F23"/></symbol><symbol id="ad-spinner" viewBox="0 0 20 20"><path d="M17.383 10.012a.603.603 0 0 0 .615-.64 8.013 8.013 0 1 0-8.626 8.626.603.603 0 0 0 .64-.615c0-.354-.288-.638-.64-.672a6.73 6.73 0 1 1 7.34-7.34c.033.353.317.64.67.64Z"/></symbol><symbol id="spinner" viewBox="0 0 80 80"><path d="M76.8 40c1.767 0 3.213-1.435 3.072-3.197a40 40 0 1 0-43.069 43.07C38.565 80.012 40 78.566 40 76.8s-1.436-3.184-3.195-3.352a33.6 33.6 0 1 1 36.643-36.643C73.616 38.565 75.033 40 76.8 40Z"/></symbol></svg>